<?xml version="1.0" encoding="UTF-8" standalone="no"?>
<!-- Created with Inkscape (http://www.inkscape.org/) -->

<svg
   width="59.221706mm"
   height="80.139809mm"
   viewBox="0 0 59.221706 80.139809"
   version="1.1"
   id="svg2974"
   xmlns="http://www.w3.org/2000/svg"
   xmlns:svg="http://www.w3.org/2000/svg">
  <defs
     id="defs2971" />
  <g
     id="layer1"
     transform="translate(-60.39218,-77.353934)">
    <path
       id="rect1107"
       style="fill:#ffffff;stroke-width:205.431;stroke-linecap:round;paint-order:markers fill stroke"
       d="m 288.43945,292.36133 v 15.88476 13.09571 h 103.45703 v -13.09571 -15.88476 z m -31.82812,15.88476 c -15.70902,0 -28.35742,12.64646 -28.35742,28.35547 v 230.29492 c 0,15.70901 12.6484,28.35547 28.35742,28.35547 h 167.11719 c 15.709,0 28.35546,-12.64646 28.35546,-28.35547 V 336.60156 c 0,-15.70901 -12.64646,-28.35547 -28.35546,-28.35547 h -11.98243 v 21.44336 c 0,6.19878 -5.29342,11.50196 -11.49218,11.50196 H 280.0918 c -6.19878,0 -11.50196,-5.30318 -11.50196,-11.50196 v -21.44336 z m 13.10937,105.4336 h 140.89649 c 6.50472,0 11.74218,5.23555 11.74219,11.74023 0,6.50472 -5.23747,11.74219 -11.74219,11.74219 H 269.7207 c -6.50471,0 -11.74023,-5.23747 -11.74023,-11.74219 0,-6.50468 5.23552,-11.74023 11.74023,-11.74023 z m 0,54.74219 h 116.81055 c 6.50472,0 11.74023,5.23746 11.74023,11.74218 0,6.50472 -5.23551,11.74024 -11.74023,11.74024 H 269.7207 c -6.50471,0 -11.74023,-5.23552 -11.74023,-11.74024 0,-6.50472 5.23552,-11.74218 11.74023,-11.74218 z m 0,54.74414 h 140.89649 c 6.50472,0 11.74218,5.23551 11.74219,11.74023 0,6.50472 -5.23747,11.74219 -11.74219,11.74219 H 269.7207 c -6.50471,0 -11.74023,-5.23747 -11.74023,-11.74219 0,-6.50472 5.23552,-11.74023 11.74023,-11.74023 z"
       transform="scale(0.26458333)" />
  </g>
</svg>
