<?xml version="1.0" encoding="UTF-8" standalone="no"?>
<!-- Created with Inkscape (http://www.inkscape.org/) -->

<svg
   width="133.29851mm"
   height="124.93928mm"
   viewBox="0 0 133.29851 124.93928"
   version="1.1"
   id="svg1280"
   inkscape:version="1.1.2 (0a00cf5339, 2022-02-04, custom)"
   sodipodi:docname="darkLight.svg"
   xmlns:inkscape="http://www.inkscape.org/namespaces/inkscape"
   xmlns:sodipodi="http://sodipodi.sourceforge.net/DTD/sodipodi-0.dtd"
   xmlns="http://www.w3.org/2000/svg"
   xmlns:svg="http://www.w3.org/2000/svg">
  <sodipodi:namedview
     id="namedview1282"
     pagecolor="#ffffff"
     bordercolor="#666666"
     borderopacity="1.0"
     inkscape:pageshadow="2"
     inkscape:pageopacity="0.0"
     inkscape:pagecheckerboard="true"
     inkscape:document-units="mm"
     showgrid="false"
     fit-margin-top="0"
     fit-margin-left="0"
     fit-margin-right="0"
     fit-margin-bottom="0"
     inkscape:zoom="0.64765011"
     inkscape:cx="-294.1403"
     inkscape:cy="249.36304"
     inkscape:window-width="1533"
     inkscape:window-height="905"
     inkscape:window-x="163"
     inkscape:window-y="89"
     inkscape:window-maximized="0"
     inkscape:current-layer="layer1" />
  <defs
     id="defs1277" />
  <g
     inkscape:label="Layer 1"
     inkscape:groupmode="layer"
     id="layer1"
     transform="translate(-47.564757,-82.559825)">
    <path
       id="path1306"
       style="stroke-width:8.16499;stroke-linecap:round;paint-order:markers fill stroke;fill:#ffffff"
       d="M 92.722723,98.920968 A 45.158061,45.158061 0 0 0 47.564757,144.07894 45.158061,45.158061 0 0 0 92.722723,189.2369 45.158061,45.158061 0 0 0 108.60082,186.33269 45.158061,45.158061 0 0 1 79.320958,144.07894 45.158061,45.158061 0 0 1 108.60082,101.8257 45.158061,45.158061 0 0 0 92.722723,98.920968 Z" />
    <path
       id="path31"
       style="fill:#ffffff;stroke-width:5.25201;stroke-linecap:round;paint-order:markers fill stroke"
       d="m 116.68003,83.019214 a 3.4278585,3.4278585 0 0 0 -1.71383,2.968163 l -2e-4,18.306513 a 3.4278585,3.4278585 0 0 0 3.42754,3.42729 3.4278585,3.4278585 0 0 0 3.42754,-3.42711 l -5e-5,-18.306964 a 3.4278585,3.4278585 0 0 0 -3.42754,-3.427281 3.4278585,3.4278585 0 0 0 -1.71346,0.459389 z m 29.52103,7.90976 a 3.4278585,3.4278585 0 0 0 -1.25475,1.2549 l -9.15335,15.853576 a 3.4278585,3.4278585 0 0 0 1.2546,4.68243 3.4278585,3.4278585 0 0 0 4.68217,-1.25504 l 9.15334,-15.853566 a 3.4278585,3.4278585 0 0 0 -1.25459,-4.68244 3.4278585,3.4278585 0 0 0 -3.42742,1.4e-4 z m -32.83807,21.369166 1.6e-4,65.42059 a 33.132135,33.132135 0 0 0 21.59642,-3.99604 33.132135,33.132135 0 0 0 12.12728,-45.25962 33.132135,33.132135 0 0 0 -33.72386,-16.16493 z m 38.59479,9.39532 a 3.4278585,3.4278585 0 0 0 -1.25443,4.68162 3.4278585,3.4278585 0 0 0 4.68187,1.25488 l 15.85423,-9.15344 a 3.4278585,3.4278585 0 0 0 1.25418,-4.68206 3.4278585,3.4278585 0 0 0 -4.68162,-1.25444 z m 5.4575,20.36776 a 3.4278585,3.4278585 0 0 0 -1.71382,2.96816 3.4278585,3.4278585 0 0 0 3.42754,3.42729 l 18.30654,2e-4 a 3.4278585,3.4278585 0 0 0 3.42772,-3.4278 3.4278585,3.4278585 0 0 0 -3.42755,-3.42727 l -18.30653,-2.2e-4 a 3.4278585,3.4278585 0 0 0 -1.7139,0.45964 z m -40.73549,40.73547 a 3.4278585,3.4278585 0 0 0 -1.71382,2.96815 l 2.4e-4,18.30628 a 3.4278585,3.4278585 0 0 0 3.42736,3.42798 3.4278585,3.4278585 0 0 0 3.42772,-3.42781 l -2.3e-4,-18.30627 a 3.4278585,3.4278585 0 0 0 -3.42737,-3.42798 3.4278585,3.4278585 0 0 0 -1.7139,0.45965 z m 35.27797,-20.36775 a 3.4278585,3.4278585 0 0 0 -1.25456,1.2542 3.4278585,3.4278585 0 0 0 1.2546,4.68243 l 15.85401,9.15308 a 3.4278585,3.4278585 0 0 0 4.68199,-1.25433 3.4278585,3.4278585 0 0 0 -1.2546,-4.68243 l -15.85402,-9.15309 a 3.4278585,3.4278585 0 0 0 -3.42742,1.4e-4 z m -14.91021,14.91025 a 3.4278585,3.4278585 0 0 0 -1.25443,4.68161 l 9.15344,15.85424 a 3.4278585,3.4278585 0 0 0 4.68162,1.25444 3.4278585,3.4278585 0 0 0 1.25488,-4.68188 l -9.15344,-15.85424 a 3.4278585,3.4278585 0 0 0 -4.68207,-1.25417 z" />
  </g>
</svg>
