<?xml version="1.0" encoding="UTF-8" standalone="no"?>
<!-- Created with Inkscape (http://www.inkscape.org/) -->

<svg
   width="111.33698mm"
   height="107.65891mm"
   viewBox="0 0 111.33698 107.65891"
   version="1.1"
   id="svg2645"
   inkscape:version="1.1.2 (0a00cf5339, 2022-02-04, custom)"
   sodipodi:docname="github_mark.svg"
   xmlns:inkscape="http://www.inkscape.org/namespaces/inkscape"
   xmlns:sodipodi="http://sodipodi.sourceforge.net/DTD/sodipodi-0.dtd"
   xmlns="http://www.w3.org/2000/svg"
   xmlns:svg="http://www.w3.org/2000/svg">
  <sodipodi:namedview
     id="namedview2647"
     pagecolor="#ffffff"
     bordercolor="#666666"
     borderopacity="1.0"
     inkscape:pageshadow="2"
     inkscape:pageopacity="0.0"
     inkscape:pagecheckerboard="true"
     inkscape:document-units="mm"
     showgrid="false"
     fit-margin-top="0"
     fit-margin-left="0"
     fit-margin-right="0"
     fit-margin-bottom="0"
     inkscape:zoom="0.64765011"
     inkscape:cx="115.03125"
     inkscape:cy="317.30096"
     inkscape:window-width="1533"
     inkscape:window-height="905"
     inkscape:window-x="277"
     inkscape:window-y="102"
     inkscape:window-maximized="0"
     inkscape:current-layer="layer1" />
  <defs
     id="defs2642" />
  <g
     inkscape:label="Layer 1"
     inkscape:groupmode="layer"
     id="layer1"
     transform="translate(-49.560471,-64.600232)">
    <path
       style="fill:#ffffff;stroke-width:0.264583"
       d="m 85.723024,171.49017 c -10.936689,-4.0657 -20.464785,-11.60282 -26.998274,-21.35676 -2.10816,-3.1473 -5.260568,-9.61867 -6.42214,-13.18358 -3.664966,-11.24791 -3.656013,-23.0659 0.02595,-34.2553 6.88259,-20.916018 25.485845,-35.676568 47.69259,-37.841158 16.37142,-1.5958 33.03544,4.41982 44.78148,16.16587 11.51592,11.51592 17.4446,27.964068 15.83448,43.930168 -0.38213,3.78927 -1.40315,8.68946 -2.51455,12.06814 -1.15874,3.5226 -4.32836,10.0081 -6.41003,13.11586 -5.58087,8.33176 -12.95177,14.76384 -21.88764,19.09983 -6.34297,3.07783 -8.67948,3.60397 -10.02685,2.25786 -0.54101,-0.54051 -0.56034,-0.83714 -0.69526,-10.66945 -0.13331,-9.71559 -0.16287,-10.18114 -0.75132,-11.83327 -0.3369,-0.94589 -1.08088,-2.40709 -1.65327,-3.24711 -0.69346,-1.01768 -0.92833,-1.5598 -0.70389,-1.62467 0.18526,-0.0535 1.587,-0.29928 3.11497,-0.54608 5.3839,-0.86962 10.55307,-3.03993 13.80579,-5.79645 3.62058,-3.06826 6.25226,-7.99844 7.21912,-13.52424 1.52806,-8.73329 0.19961,-15.6196 -4.03025,-20.89168 l -1.02677,-1.27976 0.48272,-1.74084 c 0.66151,-2.385608 0.64647,-6.610138 -0.0336,-9.446728 -0.80449,-3.35543 -0.93522,-3.55036 -2.38094,-3.55036 -2.69647,0 -6.96665,1.55436 -11.21833,4.08353 l -2.81021,1.67168 -2.05427,-0.4732 c -4.172,-0.96103 -6.28382,-1.16957 -11.84385,-1.16957 -5.560033,0 -7.671853,0.20854 -11.843853,1.16957 l -2.05427,0.4732 -2.810213,-1.67168 c -4.25167,-2.52917 -8.521859,-4.08353 -11.218329,-4.08353 -1.44571,0 -1.57644,0.19493 -2.38094,3.55036 -0.6801,2.83659 -0.69514,7.06112 -0.0336,9.446728 l 0.48273,1.74084 -1.02678,1.27976 c -3.39957,4.2372 -4.97118,9.63122 -4.59961,15.7866 0.594098,9.84179 3.7295,16.15296 10.0865,20.30285 3.027689,1.9765 7.452459,3.55688 11.904652,4.25194 3.42945,0.5354 3.21847,0.34829 2.10426,1.86615 -0.971,1.32278 -2.22047,4.37447 -2.23097,5.44892 -0.0136,1.39394 -6.340513,2.44108 -9.412893,1.55789 -2.842849,-0.81721 -4.860009,-2.45272 -6.837249,-5.54365 -1.26045,-1.9704 -3.01771,-3.61867 -4.963724,-4.65589 -3.232671,-1.723 -7.241352,-1.1541 -5.704658,0.80958 0.177274,0.22653 0.980713,0.89553 1.785422,1.48667 2.508271,1.84258 4.048879,3.7762 5.678,7.12651 1.73153,3.56093 3.14333,5.16692 5.65805,6.43635 2.62374,1.32446 4.658259,1.68067 8.632089,1.51132 1.89178,-0.0806 3.76701,-0.22563 4.167193,-0.32226 l 0.72761,-0.17569 v 5.60448 c 0,3.33793 -0.11018,5.81036 -0.27243,6.11353 -0.35748,0.66795 -1.628733,1.31155 -2.558713,1.2954 -0.4074,-0.007 -1.65564,-0.35298 -2.77385,-0.76868 z m -0.86973,-16.24582 c -0.70004,-0.51189 -0.34228,-1.22889 0.61318,-1.22889 0.42331,0 0.92857,0.19148 1.1228,0.4255 0.30004,0.36153 0.27741,0.48088 -0.15047,0.79375 -0.63071,0.46119 -0.96518,0.46322 -1.58551,0.01 z m 4.09347,-0.43166 c -0.65983,-0.42063 0.0301,-1.19411 1.06512,-1.19411 1.006393,0 1.264933,0.41027 0.647583,1.02763 -0.480673,0.48067 -1.122053,0.54301 -1.712703,0.16648 z m -8.728459,-0.39699 c -0.46613,-0.56165 -0.13171,-1.19399 0.631459,-1.19399 0.78924,0 1.51556,0.66409 1.31057,1.19828 -0.19408,0.50577 -1.521149,0.50284 -1.942029,-0.004 z m -3.65404,-2.04066 c -0.17463,-0.17462 -0.3175,-0.59134 -0.3175,-0.92604 0,-0.45861 0.14993,-0.60854 0.60854,-0.60854 0.7754,0 1.24354,0.46814 1.24354,1.24354 0,0.45861 -0.14993,0.60854 -0.60854,0.60854 -0.3347,0 -0.75142,-0.14287 -0.92604,-0.3175 z m -2.75017,-3.52613 c -0.2325,-0.51029 -0.22943,-0.74385 0.013,-0.98624 0.45997,-0.45998 1.20892,0.0842 1.3128,0.95395 0.067,0.5611 -0.0265,0.70092 -0.46869,0.70092 -0.33407,0 -0.67283,-0.26428 -0.85706,-0.66863 z m -2.206,-3.06217 c -0.26907,-0.84776 0.28032,-1.22684 0.92825,-0.64048 0.72626,0.65726 0.6775,1.19628 -0.10821,1.19628 -0.42154,0 -0.7045,-0.19178 -0.82004,-0.5558 z m -2.387041,-2.11308 c -0.09777,-0.15821 -0.04199,-0.42342 0.12396,-0.58937 0.332328,-0.33233 1.098796,0.005 1.285651,0.56517 0.13219,0.39656 -1.16571,0.41883 -1.409611,0.0242 z"
       id="path2718" />
  </g>
</svg>
