<?xml version="1.0" encoding="UTF-8" standalone="no"?>
<!-- Created with Inkscape (http://www.inkscape.org/) -->

<svg
   width="124.93914mm"
   height="124.93914mm"
   viewBox="0 0 124.93914 124.93914"
   version="1.1"
   id="svg5"
   xmlns="http://www.w3.org/2000/svg"
   xmlns:svg="http://www.w3.org/2000/svg">
  <defs
     id="defs2" />
  <g
     id="layer1"
     transform="translate(-30.766596,-81.488049)">
    <path
       id="path31"
       style="fill:#ffffff;stroke-width:19.8501;stroke-linecap:round;paint-order:markers fill stroke"
       d="m 352.38867,307.98633 a 12.955686,12.955686 0 0 0 -12.95312,12.95508 v 69.18945 a 12.955686,12.955686 0 0 0 12.95312,12.95508 12.955686,12.955686 0 0 0 12.95508,-12.95508 v -69.18945 a 12.955686,12.955686 0 0 0 -12.95508,-12.95508 z m -111.57422,29.89844 a 12.955686,12.955686 0 0 0 -6.47851,1.73437 12.955686,12.955686 0 0 0 -4.74024,17.69531 l 34.59375,59.92188 a 12.955686,12.955686 0 0 0 17.69727,4.74023 12.955686,12.955686 0 0 0 4.74023,-17.69531 L 252.0332,344.36133 a 12.955686,12.955686 0 0 0 -11.21875,-6.47656 z m 223.15039,0 a 12.955686,12.955686 0 0 0 -11.21875,6.47656 l -34.5957,59.91992 a 12.955686,12.955686 0 0 0 4.74219,17.69531 12.955686,12.955686 0 0 0 17.69531,-4.74023 l 34.5957,-59.92188 a 12.955686,12.955686 0 0 0 -4.74218,-17.69531 12.955686,12.955686 0 0 0 -6.47657,-1.73437 z M 352.38867,418.86914 A 125.22382,125.22382 0 0 0 227.16602,544.0918 125.22382,125.22382 0 0 0 352.38867,669.31641 125.22382,125.22382 0 0 0 477.61328,544.0918 125.22382,125.22382 0 0 0 352.38867,418.86914 Z m -193.2539,0.69336 a 12.955686,12.955686 0 0 0 -11.21875,6.47656 12.955686,12.955686 0 0 0 4.74218,17.69727 l 59.91992,34.59375 a 12.955686,12.955686 0 0 0 17.69532,-4.74024 12.955686,12.955686 0 0 0 -4.74024,-17.69726 l -59.92187,-34.59375 a 12.955686,12.955686 0 0 0 -6.47656,-1.73633 z m 386.50976,0 a 12.955686,12.955686 0 0 0 -6.47851,1.73633 l -59.91993,34.59375 a 12.955686,12.955686 0 0 0 -4.74218,17.69726 12.955686,12.955686 0 0 0 17.69726,4.74024 l 59.91992,-34.59375 a 12.955686,12.955686 0 0 0 4.74219,-17.69727 12.955686,12.955686 0 0 0 -11.21875,-6.47656 z M 129.23828,531.13867 a 12.955686,12.955686 0 0 0 -12.95508,12.95313 12.955686,12.955686 0 0 0 12.95508,12.95508 h 69.18945 a 12.955686,12.955686 0 0 0 12.95508,-12.95508 12.955686,12.955686 0 0 0 -12.95508,-12.95313 z m 377.11133,0 a 12.955686,12.955686 0 0 0 -12.95313,12.95313 12.955686,12.955686 0 0 0 12.95313,12.95508 h 69.19141 a 12.955686,12.955686 0 0 0 12.95312,-12.95508 12.955686,12.955686 0 0 0 -12.95312,-12.95313 z m -287.29492,76.98047 a 12.955686,12.955686 0 0 0 -6.47657,1.73438 l -59.91992,34.5957 a 12.955686,12.955686 0 0 0 -4.74218,17.69531 12.955686,12.955686 0 0 0 17.69531,4.74219 l 59.92187,-34.5957 a 12.955686,12.955686 0 0 0 4.74024,-17.69532 12.955686,12.955686 0 0 0 -11.21875,-6.47656 z m 266.66797,0 a 12.955686,12.955686 0 0 0 -11.21875,6.47656 12.955686,12.955686 0 0 0 4.74218,17.69532 l 59.91993,34.5957 a 12.955686,12.955686 0 0 0 17.69726,-4.74219 12.955686,12.955686 0 0 0 -4.74219,-17.69531 l -59.91992,-34.5957 a 12.955686,12.955686 0 0 0 -6.47851,-1.73438 z M 275.4082,664.47266 a 12.955686,12.955686 0 0 0 -11.21875,6.47656 l -34.59375,59.91992 a 12.955686,12.955686 0 0 0 4.74024,17.69727 12.955686,12.955686 0 0 0 17.69726,-4.74219 l 34.59375,-59.91992 a 12.955686,12.955686 0 0 0 -4.74023,-17.69727 12.955686,12.955686 0 0 0 -6.47852,-1.73437 z m 153.96094,0 a 12.955686,12.955686 0 0 0 -6.47656,1.73437 12.955686,12.955686 0 0 0 -4.74219,17.69727 l 34.5957,59.91992 a 12.955686,12.955686 0 0 0 17.69532,4.74219 12.955686,12.955686 0 0 0 4.74218,-17.69727 l -34.5957,-59.91992 a 12.955686,12.955686 0 0 0 -11.21875,-6.47656 z m -76.98047,20.62695 a 12.955686,12.955686 0 0 0 -12.95312,12.95312 v 69.19141 a 12.955686,12.955686 0 0 0 12.95312,12.95313 12.955686,12.955686 0 0 0 12.95508,-12.95313 v -69.19141 a 12.955686,12.955686 0 0 0 -12.95508,-12.95312 z"
       transform="scale(0.26458333)" />
  </g>
</svg>
